<?xml version="1.0" encoding="UTF-8"?>
<svg width="180px" height="57px" viewBox="0 0 180 57" version="1.1" xmlns="http://www.w3.org/2000/svg" xmlns:xlink="http://www.w3.org/1999/xlink">
    <!-- Generator: Sketch 64 (93537) - https://sketch.com -->
    <title>D1366/Seine/Logotype</title>
    <desc>Created with Sketch.</desc>
    <g id="D1366/Seine/Logotype" stroke="none" stroke-width="1" fill="none" fill-rule="evenodd">
        <g id="Logotype">
            <path d="M94.8497416,52.1558207 L94.8497416,53.3181611 C94.8497416,53.4133587 94.7698632,53.4894073 94.6749392,53.4894073 L90.6490122,53.4894073 C90.5538146,53.4894073 90.477766,53.4133587 90.477766,53.3181611 L90.477766,44.9508967 C90.477766,44.8422948 90.5880091,44.7722644 90.6845745,44.8206839 L91.9421125,45.4378267 C92.071231,45.5029331 92.1549392,45.6309574 92.1549392,45.7753951 L92.1549392,51.982386 L94.6749392,51.982386 C94.7698632,51.982386 94.8497416,52.0606231 94.8497416,52.1558207" id="Fill-1" fill="#0F406F"></path>
            <path d="M99.6674498,50.5926383 C99.6674498,49.3050091 99.0708237,48.9986261 98.2616444,48.9986261 C97.4573891,48.9986261 96.8711581,49.3050091 96.8711581,50.5926383 C96.8711581,51.8654954 97.4573891,52.1934894 98.2616444,52.1934894 C99.0708237,52.1934894 99.6674498,51.8654954 99.6674498,50.5926383 M95.2292736,50.5926383 C95.2292736,48.3984438 96.5754438,47.5791429 98.2616444,47.5791429 C99.9565988,47.5791429 101.300307,48.4695684 101.300307,50.5926383 C101.300307,52.5600547 99.9565988,53.604766 98.2616444,53.604766 C96.5754438,53.604766 95.2292736,52.5600547 95.2292736,50.5926383" id="Fill-3" fill="#0F406F"></path>
            <path d="M105.911015,51.5375289 L105.911015,49.0183495 C105.579739,48.9986535 105.243538,48.9986535 104.992413,48.9986535 C104.198006,48.9986535 103.6591,49.3627568 103.6591,50.5926657 C103.6591,51.214459 103.865635,52.1694438 104.680286,52.1694438 C105.139313,52.1694438 105.58986,51.8463739 105.911015,51.5375289 M107.519799,47.870234 L107.519799,52.7321489 C107.519799,55.4674377 106.715271,56.3644286 104.347915,56.3644286 C103.73597,56.3644286 103.091745,56.2049453 102.737763,56.0895046 C102.656517,56.0632432 102.565149,56.0074377 102.5791,55.9133343 L102.725179,55.0672249 C102.748979,54.9397477 102.794936,54.8467386 102.898888,54.8820274 C103.231532,54.9731216 103.761684,55.0311155 104.220985,55.0311155 C105.611471,55.0311155 105.911015,54.6404772 105.911015,53.0784711 L105.911015,52.9600213 C105.579739,53.2724225 105.059435,53.6047933 104.439009,53.6047933 C102.611106,53.6047933 102.01448,51.9402036 102.01448,50.5926657 C102.01448,48.6624529 103.289526,47.5791702 105.003903,47.5791702 C105.256122,47.5791702 105.631714,47.5920274 106.025088,47.6150061 C106.052991,47.6043374 106.059283,47.6043374 106.083356,47.6043374 L106.371684,47.6245805 C106.728128,47.6500213 107.074176,47.6702644 107.348553,47.6981672 C107.47521,47.7102036 107.519799,47.7523313 107.519799,47.870234" id="Fill-5" fill="#0F406F"></path>
            <path d="M112.594568,49.9609696 C112.490617,49.1531581 112.15469,48.9985988 111.399675,48.9985988 C110.739857,48.9985988 110.389432,49.2483556 110.26934,49.9609696 L112.594568,49.9609696 Z M114.214842,49.9609696 C114.214842,50.7430669 113.963717,51.1796626 113.111043,51.1796626 L110.260313,51.2146778 C110.408581,52.0534012 110.997274,52.224921 111.824781,52.193462 C112.443565,52.1693891 113.053869,51.9015775 113.409219,51.6280213 C113.503049,51.5579909 113.605906,51.6039483 113.67703,51.7182948 L114.134964,52.5345866 C114.180374,52.6382644 114.087912,52.7200578 114.033474,52.7531581 C113.652684,53.0650122 112.87004,53.6047386 111.583505,53.6047386 C110.238702,53.6047386 108.603383,52.9022462 108.603383,50.5926109 C108.603383,48.5699362 109.779128,47.5791155 111.479553,47.5791155 C113.685784,47.5791155 114.214842,49.4294498 114.214842,49.9609696 L114.214842,49.9609696 Z" id="Fill-7" fill="#0F406F"></path>
            <path d="M128.858745,49.9609696 C128.756161,49.1531581 128.42379,48.9985988 127.663304,48.9985988 C127.008957,48.9985988 126.650052,49.2483556 126.538441,49.9609696 L128.858745,49.9609696 Z M130.482027,49.9609696 C130.482027,50.7430669 130.230629,51.1796626 129.377681,51.1796626 L126.525584,51.2146778 C126.679322,52.0534012 127.262818,52.224921 128.091146,52.193462 C128.712939,52.1693891 129.320508,51.9015775 129.675857,51.6280213 C129.768866,51.5579909 129.872544,51.6039483 129.942301,51.7182948 L130.400781,52.5345866 C130.446465,52.6382644 130.356191,52.7200578 130.294915,52.7531581 C129.918502,53.0650122 129.138046,53.6047386 127.847681,53.6047386 C126.504246,53.6047386 124.872483,52.9022462 124.872483,50.5926109 C124.872483,48.5699362 126.042483,47.5791155 127.747559,47.5791155 C129.954884,47.5791155 130.482027,49.4294498 130.482027,49.9609696 L130.482027,49.9609696 Z" id="Fill-9" fill="#0F406F"></path>
            <path d="M141.781897,53.3746778 C141.346122,53.5363495 140.80448,53.6047386 140.450498,53.6047386 C139.346973,53.6047386 138.679222,52.9988116 138.679222,51.8824286 L138.679222,49.038538 L138.254116,49.038538 C138.14141,49.038538 138.082869,48.9830061 138.082869,48.8686596 L138.082869,48.1202097 L138.679222,47.7905745 L138.679222,47.1786292 C138.679222,47.0640091 138.782079,47.0035532 138.886304,46.9482948 L140.048644,46.3732796 C140.173933,46.3081733 140.286638,46.3875046 140.286638,46.5371398 L140.286638,47.6981125 L141.473052,47.6981125 C141.586304,47.6981125 141.647307,47.7522766 141.647307,47.8701793 L141.647307,48.8686596 C141.647307,48.9830061 141.586304,49.038538 141.473052,49.038538 L140.286638,49.038538 L140.286638,51.5820638 C140.286638,52.0534012 140.577429,52.2596626 140.954116,52.2492675 C141.058067,52.2492675 141.346122,52.224921 141.611198,52.1475046 C141.715422,52.1103009 141.772596,52.2041307 141.781897,52.3283252 L141.943842,53.2023374 C141.943842,53.2978085 141.865331,53.3410304 141.781897,53.3746778" id="Fill-11" fill="#0F406F"></path>
            <path d="M121.959465,47.5791155 C121.291988,47.5791155 120.580195,47.9823374 120.132657,48.3371398 C119.888644,47.824769 119.454784,47.5791155 118.766243,47.5791155 C118.077155,47.5791155 117.409678,48.0285684 116.995787,48.3852857 L116.995787,47.7303921 C116.995787,47.6234316 116.881714,47.549845 116.787884,47.5993587 L115.606669,48.1861368 C115.474815,48.2526109 115.384541,48.3839179 115.384541,48.527535 L115.382079,53.3180517 C115.382079,53.4326717 115.440347,53.4895714 115.554967,53.4895714 L116.818523,53.4895714 L116.822353,53.4895714 L116.829739,53.4895714 C116.926304,53.4882036 116.980742,53.4375957 116.987307,53.3434924 C116.989769,53.3361064 116.995787,53.3292675 116.995787,53.3180517 L116.995787,49.5448906 C117.249921,49.2822766 117.592413,49.0182948 118.017246,49.0182948 C118.53372,49.0182948 118.741897,49.1651945 118.741897,50.5491155 L118.741897,53.3180517 C118.741897,53.4326717 118.79907,53.4895714 118.913143,53.4895714 L120.176973,53.4895714 C120.294875,53.4895714 120.351775,53.4326717 120.351775,53.3180517 L120.351775,49.6064407 L120.351775,49.4754073 C120.614663,49.2374134 120.962079,49.0182948 121.37214,49.0182948 C121.869465,49.0182948 122.11293,49.0746474 122.11293,50.1669574 L122.11293,53.3180517 C122.11293,53.4326717 122.167641,53.4895714 122.282809,53.4895714 L123.546638,53.4895714 C123.662353,53.4895714 123.718158,53.4326717 123.718158,53.3180517 L123.718158,49.6499362 C123.718158,48.213766 123.073386,47.5791155 121.959465,47.5791155" id="Fill-13" fill="#0F406F"></path>
            <path d="M135.133304,47.5791155 C134.461997,47.5791155 133.77072,48.0044954 133.323729,48.3502705 L133.323729,47.7303921 C133.323729,47.6234316 133.212392,47.549845 133.115827,47.5993587 L131.933243,48.1861368 C131.806587,48.2526109 131.712757,48.3839179 131.712757,48.527535 L131.712757,53.3180517 C131.712757,53.4326717 131.768562,53.4895714 131.881267,53.4895714 L131.886191,53.4895714 L133.146191,53.4895714 L133.148927,53.4895714 C133.152757,53.4895714 133.154125,53.4882036 133.160416,53.4882036 C133.242757,53.4830061 133.292271,53.4468967 133.308684,53.3823374 C133.316343,53.3615471 133.323729,53.3361064 133.323729,53.3180517 L133.323729,49.6244954 C133.622179,49.3339787 134.054672,49.0182948 134.571146,49.0182948 C135.125644,49.0182948 135.491116,49.2242827 135.491116,50.283766 L135.491116,53.3180517 C135.491116,53.4326717 135.549383,53.4895714 135.666191,53.4895714 L136.928653,53.4895714 C137.046556,53.4895714 137.10072,53.4326717 137.10072,53.3180517 L137.10072,49.8113343 C137.10072,48.2487812 136.432422,47.5791155 135.133304,47.5791155" id="Fill-15" fill="#0F406F"></path>
            <path d="M19.1783435,53.4895441 L18.7127508,53.4895441 C18.2928419,53.4895441 18.0731763,53.2685106 17.9626596,52.8997568 C17.4089818,53.2685106 16.6495897,53.6167477 15.9093465,53.6167477 C13.4396809,53.6167477 12.0642401,52.138997 12.0642401,49.0688754 C12.0642401,45.9960182 13.5627812,44.5204559 16.0329939,44.5204559 C16.9288906,44.5204559 17.926003,44.7048328 18.5376748,45.1244681 C18.6123556,45.1737082 18.623845,45.27 18.5882827,45.3438602 L18.1221429,46.1932523 C18.0616869,46.3193617 17.926003,46.3193617 17.8029027,46.2405775 C17.3334802,45.961003 16.6832371,45.7875684 16.0215046,45.7875684 C14.632386,45.7875684 13.5627812,46.804924 13.5627812,49.0688754 C13.5627812,51.3279027 14.5087386,52.3490881 15.89731,52.3490881 C16.597614,52.3490881 17.3118693,51.9450456 17.7889514,51.6110334 L17.7889514,49.7691793 L16.0570669,49.7691793 C15.9334195,49.7691793 15.8732371,49.7054407 15.8732371,49.5834347 L15.8732371,48.6492401 C15.8732371,48.5275076 15.9334195,48.4684195 16.0570669,48.4684195 L19.0566109,48.4684195 C19.1783435,48.4684195 19.2404407,48.5275076 19.2404407,48.6492401 L19.2404407,49.5834347 L19.2404407,49.6075076 L19.2404407,49.6329483 L19.2404407,51.981155 C19.2404407,52.4825836 19.2773708,52.8658359 19.363541,53.3100912 C19.387614,53.4304559 19.3014438,53.4895441 19.1783435,53.4895441" id="Fill-17" fill="#0F406F"></path>
            <path d="M24.0617325,47.3977204 L24.0516109,48.5781155 C24.0516109,48.6995745 23.9908815,48.7493617 23.8675076,48.760304 C22.7850456,48.8951672 22.096231,49.0448024 22.096231,49.6583891 L22.096231,53.3100912 C22.096231,53.4304559 22.0382371,53.4895441 21.9124012,53.4895441 L20.894772,53.4895441 C20.7711246,53.4895441 20.7084802,53.4304559 20.7084802,53.3100912 L20.7084802,47.5317629 C20.7084802,47.4097568 20.7711246,47.349848 20.894772,47.349848 L21.2996353,47.349848 C21.7920365,47.349848 22.096231,47.6567781 22.096231,48.1453495 L22.096231,48.1828267 C22.6140729,47.7281763 23.2180851,47.4217933 23.8193617,47.2510942 C23.966535,47.2002128 24.0617325,47.2631307 24.0617325,47.3977204" id="Fill-19" fill="#0F406F"></path>
            <path d="M29.4424468,50.4189848 C29.4424468,48.9226322 28.7560942,48.4395319 27.736003,48.4395319 C26.7178267,48.4395319 26.0279179,48.9226322 26.0279179,50.4189848 C26.0279179,51.9065836 26.7178267,52.3984377 27.736003,52.3984377 C28.7560942,52.3984377 29.4424468,51.9065836 29.4424468,50.4189848 M24.6136322,50.4189848 C24.6136322,48.0984073 25.9535106,47.2243951 27.736003,47.2243951 C29.5160334,47.2243951 30.8559119,48.1730881 30.8559119,50.4189848 C30.8559119,52.497465 29.5160334,53.6168571 27.736003,53.6168571 C25.9535106,53.6168571 24.6136322,52.497465 24.6136322,50.4189848" id="Fill-21" fill="#0F406F"></path>
            <path d="M37.3037143,53.4895441 L36.8991246,53.4895441 C36.4067234,53.4895441 36.1859635,53.1828875 36.1008875,52.693769 L36.1008875,52.6792705 C35.6328328,53.0865957 34.8830152,53.6167477 34.0226809,53.6167477 C32.7071489,53.6167477 31.9950821,52.8778723 31.9950821,51.2291489 L31.9950821,47.5317629 C31.9950821,47.4097568 32.0574529,47.349848 32.1791854,47.349848 L33.1973617,47.349848 C33.3210091,47.349848 33.3831064,47.4097568 33.3831064,47.5317629 L33.3831064,50.6057143 C33.3831064,52.1524012 33.7868754,52.3728875 34.6863283,52.3728875 C35.2038967,52.3728875 35.6328328,52.0435258 35.9769666,51.6980243 L35.9769666,47.5317629 C35.9769666,47.4097568 36.0374225,47.349848 36.1610699,47.349848 L37.183076,47.349848 C37.3037143,47.349848 37.3647173,47.4097568 37.3647173,47.5317629 L37.3647173,51.981155 C37.3647173,52.4825836 37.4013739,52.8658359 37.4878176,53.3100912 C37.5143526,53.4304559 37.4268146,53.4895441 37.3037143,53.4895441" id="Fill-23" fill="#0F406F"></path>
            <path d="M43.259307,50.4189848 C43.259307,49.6330578 43.0500365,48.4685289 41.9347477,48.4685289 C41.3446869,48.4685289 40.7414954,48.9447903 40.3462067,49.3266748 L40.3462067,52.3595927 C40.7901884,52.3836657 41.2317082,52.3984377 41.5761155,52.3984377 C42.6085167,52.3984377 43.259307,51.8570699 43.259307,50.4189848 M44.6714043,50.4189848 C44.6714043,52.4586201 43.3936231,53.6168571 41.564079,53.6168571 C41.2442918,53.6168571 40.8022249,53.6026322 40.3462067,53.5785593 L40.3462067,56.3803222 C40.3462067,56.5023283 40.2852036,56.5646991 40.1634711,56.5646991 L39.1447477,56.5646991 C39.0202796,56.5646991 38.9595502,56.5023283 38.9595502,56.3803222 L38.9595502,47.5318723 C38.9595502,47.4098663 39.0202796,47.3496839 39.1447477,47.3496839 L39.5493374,47.3496839 C40.0157508,47.3496839 40.3221337,47.6292584 40.3462067,48.0852766 C40.7174225,47.7020243 41.3548085,47.2243951 42.1642614,47.2243951 C44.1221033,47.2243951 44.6714043,49.0060669 44.6714043,50.4189848" id="Fill-25" fill="#0F406F"></path>
            <path d="M49.9425866,49.8691915 C49.8550486,48.8228389 49.4608541,48.4395866 48.4298207,48.4395866 C47.5590912,48.4395866 47.0773587,48.8469119 46.9558997,49.8691915 L49.9425866,49.8691915 Z M51.3407325,49.8691915 L51.3407325,49.881228 C51.3407325,50.5440547 51.1076626,50.9374286 50.3466292,50.9374286 L46.9558997,50.9576717 C47.0896687,52.1030517 47.789152,52.4370638 48.835231,52.3984924 C49.5486657,52.3730517 50.2106717,52.0434164 50.5931033,51.7485228 C50.6915836,51.6727477 50.7892432,51.7367599 50.8628298,51.8571246 L51.2307629,52.5090091 C51.2810973,52.6055745 51.1952006,52.6939331 51.1205198,52.742079 C50.7156565,53.0637812 49.9056565,53.6169119 48.6013404,53.6169119 C47.1993647,53.6169119 45.5279362,52.866 45.5279362,50.4190395 C45.5279362,48.2803769 46.7088784,47.2244498 48.4908237,47.2244498 C50.7758389,47.2244498 51.3407325,49.0312888 51.3407325,49.8691915 L51.3407325,49.8691915 Z" id="Fill-28" fill="#0F406F"></path>
            <path d="M60.8467842,50.176696 L59.5449301,46.2648419 L58.2433495,50.176696 L60.8467842,50.176696 Z M63.2814347,53.489462 L62.1117082,53.489462 C62.0025593,53.489462 61.942924,53.4448723 61.9035319,53.343383 L61.2781824,51.4749939 L57.8092158,51.4749939 L57.187696,53.343383 C57.1472097,53.4448723 57.0886687,53.489462 56.9759635,53.489462 L55.8097933,53.489462 C55.6727416,53.489462 55.6131064,53.4063009 55.6601581,53.2782766 L58.7330152,44.7939301 C58.7699453,44.6940821 58.8334103,44.6445684 58.9422857,44.6445684 L60.1475745,44.6445684 C60.2567234,44.6445684 60.3177264,44.6940821 60.356845,44.7939301 L63.4286079,53.2782766 C63.4781216,53.4063009 63.4171185,53.489462 63.2814347,53.489462 L63.2814347,53.489462 Z" id="Fill-30" fill="#0F406F"></path>
            <path d="M68.6063982,52.8152827 C68.238465,53.1347964 67.4530851,53.6277447 66.3594073,53.6168024 C65.1070669,53.6025775 63.706459,52.8899635 63.706459,50.4093556 C63.706459,47.9525471 65.1311398,47.2243404 66.3594073,47.2243404 C67.3428419,47.2243404 67.9110182,47.4836717 68.4972492,47.8149483 C68.5962766,47.8775927 68.5962766,47.9645836 68.5341793,48.0731854 L68.2157599,48.7094772 C68.1561246,48.8353131 68.0064894,48.8952219 67.846459,48.810693 C67.5039666,48.6249483 66.9595897,48.4394772 66.4838754,48.4394772 C65.5879787,48.4394772 65.1196505,49.0940973 65.1196505,50.4093556 C65.1196505,51.7183222 65.5879787,52.398383 66.4838754,52.398383 C66.9989818,52.398383 67.6612614,52.1270152 67.9821429,51.8944924 C68.1167325,51.7982006 68.2272492,51.8075015 68.3019301,51.9185653 L68.6963982,52.5720912 C68.7434498,52.6552523 68.6824468,52.7529119 68.6063982,52.8152827" id="Fill-32" fill="#0F406F"></path>
            <path d="M72.9429483,53.3701368 C72.4773556,53.5411094 71.9228571,53.6168845 71.5398784,53.6168845 C70.3865653,53.6168845 69.847386,52.965 69.847386,51.7690122 L69.847386,48.5019301 L69.3169605,48.5019301 C69.1938602,48.5019301 69.1317629,48.4395593 69.1317629,48.318921 L69.1317629,47.7020517 L69.847386,47.4216565 L69.847386,46.6455775 C69.847386,46.523845 69.9209726,46.4382219 70.029848,46.3780395 L71.0017933,45.898769 C71.136383,45.823541 71.2367781,45.898769 71.2367781,46.0560638 L71.2367781,47.3497112 L72.6119453,47.3497112 C72.7336778,47.3497112 72.7957751,47.4096201 72.7957751,47.5318997 L72.7957751,48.318921 C72.7957751,48.4395593 72.7336778,48.5019301 72.6119453,48.5019301 L71.2367781,48.5019301 L71.2367781,51.4530547 C71.2367781,52.1897416 71.467386,52.4466109 71.9978116,52.4370365 C72.2057143,52.4370365 72.5244073,52.383693 72.8083587,52.2969757 C72.9150456,52.2644225 72.9672948,52.3596201 72.9938298,52.4974924 L73.1141945,53.1830243 C73.1256839,53.2782219 73.0280243,53.3326596 72.9429483,53.3701368" id="Fill-34" fill="#0F406F"></path>
            <path d="M74.0570881,48.0140152 L74.0570881,53.3100638 C74.0570881,53.4304286 74.1216474,53.4895167 74.2436535,53.4895167 L75.2623769,53.4895167 C75.3865714,53.4895167 75.4486687,53.4304286 75.4486687,53.3100638 L75.4486687,47.5317356 C75.4486687,47.4097295 75.3499149,47.3148055 75.1923465,47.3749878 C75.0771793,47.4255957 74.3183343,47.7330729 74.2105532,47.7784833 C74.102772,47.8321003 74.0570881,47.9286657 74.0570881,48.0140152" id="Fill-36" fill="#0F406F"></path>
            <path d="M81.3916778,50.4189848 C81.3916778,48.9226322 80.7028632,48.4395319 79.6849605,48.4395319 C78.6637751,48.4395319 77.977696,48.9226322 77.977696,50.4189848 C77.977696,51.9065836 78.6637751,52.3984377 79.6849605,52.3984377 C80.7028632,52.3984377 81.3916778,51.9065836 81.3916778,50.4189848 M76.5628632,50.4189848 C76.5628632,48.0984073 77.9013739,47.2243951 79.6849605,47.2243951 C81.4638967,47.2243951 82.8062371,48.1730881 82.8062371,50.4189848 C82.8062371,52.497465 81.4638967,53.6168571 79.6849605,53.6168571 C77.9013739,53.6168571 76.5628632,52.497465 76.5628632,50.4189848" id="Fill-38" fill="#0F406F"></path>
            <path d="M89.3011459,49.607535 L89.3011459,53.3101185 C89.3011459,53.4304833 89.2415106,53.4895714 89.1184103,53.4895714 L88.0996869,53.4895714 C87.9738511,53.4895714 87.9131216,53.4304833 87.9131216,53.3101185 L87.9131216,50.1138875 C87.9131216,48.9228237 87.6302644,48.4684468 86.7343678,48.4684468 C86.0709939,48.4684468 85.5443982,48.8951945 85.200538,49.2639483 L85.200538,53.3101185 C85.200538,53.4304833 85.1384407,53.4895714 85.0153404,53.4895714 L83.9952492,53.4895714 C83.8707812,53.4895714 83.8086839,53.4304833 83.8086839,53.3101185 L83.8086839,47.5317903 C83.8086839,47.4097842 83.9202948,47.3208784 84.0559787,47.3736748 L85.0265562,47.7667751 C85.146921,47.822307 85.2117538,47.856228 85.200538,48.1333404 C85.2246109,47.5342523 86.3552188,47.2243131 87.2139119,47.2243131 C88.5299909,47.2243131 89.3011459,47.8392675 89.3011459,49.607535" id="Fill-40" fill="#0F406F"></path>
            <path d="M73.960769,45.1181763 L74.7105866,44.6807599 C74.731924,44.6640729 74.7611945,44.6640729 74.7866353,44.6807599 L75.5364529,45.1181763 C75.5605258,45.1280243 75.5731094,45.1531915 75.5731094,45.1797264 L75.5731094,46.0455319 C75.5731094,46.0696049 75.5605258,46.0969605 75.5364529,46.1103647 L74.7866353,46.5455927 C74.7611945,46.5600912 74.731924,46.5600912 74.7105866,46.5455927 L73.960769,46.1103647 C73.936696,46.0969605 73.9213769,46.0696049 73.9213769,46.0455319 L73.9213769,45.1797264 C73.9213769,45.1531915 73.936696,45.1280243 73.960769,45.1181763" id="Fill-42" fill="#0F406F"></path>
            <polygon id="Fill-44" fill="#0F406F" points="12.2383587 39.3064742 142.465623 39.3064742 142.465623 38.607538 12.2383587 38.607538"></polygon>
            <polygon id="Fill-46" fill="#E7004C" points="0 11.9765927 3.15957447 11.9765927 3.15957447 27.081 12.6125836 27.081 12.6125836 29.9579909 0 29.9579909"></polygon>
            <path d="M25.7635805,23.2534286 L25.7635805,23.2022736 C25.7635805,20.813307 24.0423647,18.8352219 21.6022432,18.8352219 C19.1104195,18.8352219 17.5177751,20.7873191 17.5177751,23.150845 L17.5177751,23.2022736 C17.5177751,25.5655258 19.2387173,27.5690517 21.6536717,27.5690517 C24.1709362,27.5690517 25.7635805,25.5909666 25.7635805,23.2534286 M14.4096292,23.2534286 L14.4096292,23.2022736 C14.4096292,19.3232462 17.4920608,16.1125167 21.6536717,16.1125167 C25.8147356,16.1125167 28.8717264,19.2718176 28.8717264,23.150845 L28.8717264,23.2022736 C28.8717264,27.0553131 25.7892948,30.2663161 21.6022432,30.2663161 C17.4663465,30.2663161 14.4096292,27.1064681 14.4096292,23.2534286" id="Fill-47" fill="#E7004C"></path>
            <path d="M42.1768176,22.5342766 L42.1768176,22.482848 C42.1768176,20.2481672 40.3530182,18.7323921 38.1952067,18.7323921 C36.0373951,18.7323921 34.3418936,20.2224529 34.3418936,22.4571337 L34.3418936,22.5085623 C34.3418936,24.7435167 36.0631094,26.2590182 38.1952067,26.2590182 C40.3530182,26.2590182 42.1768176,24.7175289 42.1768176,22.5342766 M31.8760578,32.5010243 L33.0321064,30.1634863 C34.470465,31.0623921 36.0116809,31.601845 37.8611945,31.601845 C40.6356018,31.601845 42.1511033,30.1634863 42.1511033,27.4405076 L42.1511033,26.3873161 C41.020769,27.8513891 39.6081246,28.8791398 37.3731702,28.8791398 C34.1878815,28.8791398 31.2080334,26.5158875 31.2080334,22.5342766 L31.2080334,22.482848 C31.2080334,18.4755228 34.2135957,16.1122705 37.3731702,16.1122705 C39.6592796,16.1122705 41.0721976,17.165462 42.1253891,18.4243678 L42.1253891,16.3948541 L45.233535,16.3948541 L45.233535,27.1836383 C45.233535,29.4700213 44.6429271,31.1652492 43.5125927,32.2955836 C42.2794012,33.5285015 40.3787325,34.119383 37.9383374,34.119383 C35.703383,34.119383 33.6227143,33.5542158 31.8760578,32.5010243" id="Fill-48" fill="#E7004C"></path>
            <path d="M58.2817842,22.2260061 C58.0763435,20.2224802 56.8945805,18.6552766 54.8396261,18.6552766 C52.9386839,18.6552766 51.6029088,20.1196231 51.3203252,22.2260061 L58.2817842,22.2260061 Z M48.2378936,23.227769 L48.2378936,23.176614 C48.2378936,19.2975866 50.9865866,16.1122979 54.8653404,16.1122979 C59.1809635,16.1122979 61.3642158,19.5030274 61.3642158,23.4074954 C61.3642158,23.6903526 61.3385015,23.9726626 61.3130608,24.2809605 L51.3460395,24.2809605 C51.6800517,26.4902006 53.2469818,27.7231185 55.2505076,27.7231185 C56.7660091,27.7231185 57.8451884,27.1579514 58.9240942,26.1047599 L60.7478936,27.7231185 C59.4632736,29.2643343 57.6909027,30.2663708 55.199079,30.2663708 C51.2691702,30.2663708 48.2378936,27.4148207 48.2378936,23.227769 L48.2378936,23.227769 Z" id="Fill-49" fill="#E7004C"></path>
            <path d="M74.977386,23.2534286 L74.977386,23.2022736 C74.977386,20.813307 73.2561702,18.8352219 70.8160486,18.8352219 C68.3242249,18.8352219 66.7315805,20.7873191 66.7315805,23.150845 L66.7315805,23.2022736 C66.7315805,25.5655258 68.4525228,27.5690517 70.8674772,27.5690517 C73.3847416,27.5690517 74.977386,25.5909666 74.977386,23.2534286 M63.6234347,23.2534286 L63.6234347,23.2022736 C63.6234347,19.3232462 66.7058663,16.1125167 70.8674772,16.1125167 C75.028541,16.1125167 78.0855319,19.2718176 78.0855319,23.150845 L78.0855319,23.2022736 C78.0855319,27.0553131 75.0031003,30.2663161 70.8160486,30.2663161 C66.680152,30.2663161 63.6234347,27.1064681 63.6234347,23.2534286" id="Fill-50" fill="#E7004C"></path>
            <path d="M87.2027234,27.3378146 L89.1036657,25.0774195 C90.8248815,26.5672067 92.5458237,27.4149574 94.7807781,27.4149574 C96.7328754,27.4149574 97.9657933,26.5157781 97.9657933,25.1545623 L97.9657933,25.1031337 C97.9657933,23.8185137 97.246614,23.1250486 93.9073131,22.3544407 C90.0797143,21.4295471 87.9219027,20.2994863 87.9219027,16.9856261 L87.9219027,16.9344711 C87.9219027,13.851766 90.4908693,11.7196687 94.0613252,11.7196687 C96.6814468,11.7196687 98.7621155,12.5159909 100.585915,13.9803374 L98.8906869,16.369304 C97.2723283,15.1618267 95.6539696,14.5197903 94.0098967,14.5197903 C92.1606565,14.5197903 91.0817508,15.4701246 91.0817508,16.6518875 L91.0817508,16.7033161 C91.0817508,18.0902462 91.9037872,18.7068419 95.3456717,19.5288784 C99.1475562,20.4534985 101.125641,21.8149878 101.125641,24.7948359 L101.125641,24.8462644 C101.125641,28.2112796 98.4798055,30.2148055 94.7036353,30.2148055 C91.9549422,30.2148055 89.360535,29.2644711 87.2027234,27.3378146" id="Fill-51" fill="#E7004C"></path>
            <path d="M113.65996,22.2260061 C113.45452,20.2224802 112.272757,18.6552766 110.217802,18.6552766 C108.31686,18.6552766 106.981085,20.1196231 106.698502,22.2260061 L113.65996,22.2260061 Z M103.61607,23.227769 L103.61607,23.176614 C103.61607,19.2975866 106.364763,16.1122979 110.243517,16.1122979 C114.55914,16.1122979 116.742392,19.5030274 116.742392,23.4074954 C116.742392,23.6903526 116.716678,23.9726626 116.691237,24.2809605 L106.724216,24.2809605 C107.058228,26.4902006 108.625158,27.7231185 110.628684,27.7231185 C112.144185,27.7231185 113.223365,27.1579514 114.302271,26.1047599 L116.12607,27.7231185 C114.84145,29.2643343 113.069079,30.2663708 110.577255,30.2663708 C106.647347,30.2663708 103.61607,27.4148207 103.61607,23.227769 L103.61607,23.227769 Z" id="Fill-52" fill="#E7004C"></path>
            <path d="M119.926505,29.9579635 L123.03465,29.9579635 L123.03465,16.394772 L119.926505,16.394772 L119.926505,29.9579635 Z M119.797933,14.3143769 L123.137508,14.3143769 L123.137508,11.3602432 L119.797933,11.3602432 L119.797933,14.3143769 Z" id="Fill-53" fill="#E7004C"></path>
            <path d="M126.964286,16.3949088 L130.072432,16.3949088 L130.072432,18.5012918 C130.945897,17.2169453 132.204529,16.1123252 134.310912,16.1123252 C137.367629,16.1123252 139.140274,18.1672796 139.140274,21.3268541 L139.140274,29.9581003 L136.031854,29.9581003 L136.031854,22.2517477 C136.031854,20.1453647 134.978663,18.9378875 133.129422,18.9378875 C131.331064,18.9378875 130.072432,20.1965198 130.072432,22.3031763 L130.072432,29.9581003 L126.964286,29.9581003 L126.964286,16.3949088 Z" id="Fill-54" fill="#E7004C"></path>
            <path d="M152.059869,22.2260061 C151.854429,20.2224802 150.672666,18.6552766 148.617711,18.6552766 C146.716769,18.6552766 145.380994,20.1196231 145.09841,22.2260061 L152.059869,22.2260061 Z M142.015979,23.227769 L142.015979,23.176614 C142.015979,19.2975866 144.764672,16.1122979 148.643426,16.1122979 C152.959049,16.1122979 155.142301,19.5030274 155.142301,23.4074954 C155.142301,23.6903526 155.116587,23.9726626 155.091146,24.2809605 L145.124125,24.2809605 C145.458137,26.4902006 147.025067,27.7231185 149.028593,27.7231185 C150.544094,27.7231185 151.623274,27.1579514 152.702179,26.1047599 L154.525979,27.7231185 C153.241359,29.2643343 151.468988,30.2663708 148.977164,30.2663708 C145.047255,30.2663708 142.015979,27.4148207 142.015979,23.227769 L142.015979,23.227769 Z" id="Fill-55" fill="#E7004C"></path>
            <path d="M178.811891,14.164769 L173.93876,14.164769 L173.93876,7.507231 C173.93876,6.94452584 173.481647,6.48741337 172.920857,6.48741337 C172.362802,6.48741337 171.904869,6.94452584 171.904869,7.507231 L171.904869,15.1802097 C171.904869,15.7415471 172.362802,16.1972918 172.920857,16.1972918 L177.794535,16.1972918 L177.794535,16.6650729 L177.751313,16.6905137 L169.446967,21.4722766 L169.404018,21.4471094 L161.121556,16.6478389 L161.121556,7.00744377 L161.164778,6.98255015 L169.462559,2.1903921 L169.508243,2.21528571 L178.312103,7.29932827 C178.549277,7.43802128 178.822286,7.47549848 179.082438,7.40437386 C179.347514,7.33489058 179.566906,7.16501216 179.702863,6.92783891 C179.838547,6.69066565 179.87493,6.41929787 179.806815,6.15531611 C179.734322,5.8935228 179.566906,5.67440426 179.329459,5.54008815 L169.972468,0.136531915 C169.815447,0.0446170213 169.640371,2.73556231e-05 169.462559,2.73556231e-05 C169.287483,2.73556231e-05 169.112407,0.0446170213 168.954839,0.136531915 L159.596754,5.53817325 C159.280796,5.71872036 159.085477,6.05628875 159.085477,6.42066565 L159.086571,17.0797842 C159.086571,17.3087508 159.141283,17.611304 159.255356,17.7967751 C159.351921,17.9573526 159.555994,18.0872918 159.555994,18.0872918 L168.935964,23.5255897 C169.241526,23.7039483 169.645021,23.7039483 169.952498,23.5266839 L179.31797,18.1368055 C179.635568,17.9559848 179.831982,17.6184164 179.831982,17.2556809 L179.831982,15.1802097 C179.831982,14.6180517 179.375416,14.164769 178.811891,14.164769" id="Fill-56" fill="#E7004C"></path>
            <path d="M165.071435,12.4494347 L166.277818,9.7953921 L167.348517,12.4494347 L165.071435,12.4494347 Z M166.329793,6.60244377 C165.979915,6.60244377 165.65493,6.81280851 165.50803,7.13068085 L161.966571,14.9242979 C161.76031,15.3764863 161.961374,15.9126565 162.414657,16.1197386 C162.866298,16.3227173 163.402742,16.1227477 163.608456,15.6702857 L164.26034,14.2371246 L164.402863,14.2488875 C164.414079,14.2502553 164.423106,14.2538116 164.43569,14.2538116 L168.074535,14.2538116 L168.631495,15.6330821 C168.768547,15.9777629 169.097088,16.1993435 169.465021,16.1993435 C169.584292,16.1993435 169.696176,16.1766383 169.80259,16.1347842 C170.024444,16.0447842 170.19952,15.8729909 170.297453,15.6511368 C170.392377,15.4287356 170.394018,15.1844498 170.303471,14.9617751 L167.167422,7.16870517 C167.030644,6.82949544 166.710584,6.61229179 166.329793,6.60244377 L166.329793,6.60244377 Z" id="Fill-57" fill="#E7004C"></path>
        </g>
    </g>
</svg>